<?xml version="1.0" standalone="no"?>
<!DOCTYPE svg PUBLIC "-//W3C//DTD SVG 20010904//EN"
 "http://www.w3.org/TR/2001/REC-SVG-20010904/DTD/svg10.dtd">
<svg version="1.0" xmlns="http://www.w3.org/2000/svg"
 width="300.000000pt" height="300.000000pt" viewBox="0 0 300.000000 300.000000"
 preserveAspectRatio="xMidYMid meet">

<g transform="translate(0.000000,300.000000) scale(0.100000,-0.100000)"
fill="#000000" stroke="none">
<path d="M1125 2753 c-45 -11 -76 -56 -85 -122 l-5 -44 -90 -46 c-50 -25 -112
-61 -139 -80 l-48 -33 -36 35 c-69 66 -128 82 -183 50 -35 -21 -38 -28 -45
-117 -6 -63 -3 -77 20 -127 l27 -55 -51 -76 c-119 -178 -190 -420 -190 -644 0
-64 -4 -80 -24 -107 -34 -45 -66 -123 -66 -161 0 -73 50 -161 98 -172 97 -22
96 -21 126 -85 35 -72 105 -174 171 -246 l47 -53 -91 0 -90 0 -37 76 c-30 62
-43 79 -70 90 -41 17 -75 10 -107 -22 -21 -21 -25 -36 -30 -131 -8 -129 2
-186 36 -221 33 -32 106 -41 161 -18 32 13 81 16 278 16 l241 0 -6 28 c-3 16
-9 63 -13 105 -6 71 -8 77 -29 77 -46 0 -198 144 -280 265 -43 63 -101 174
-93 179 2 2 21 8 44 14 63 18 164 132 164 184 0 8 20 21 44 30 l45 17 25 -76
c39 -117 91 -199 180 -288 158 -156 364 -229 580 -205 502 57 788 589 560
1041 l-33 66 90 61 89 61 16 -24 c27 -42 84 -197 101 -279 24 -111 24 -313 0
-426 -24 -112 -86 -255 -154 -358 -66 -98 -221 -250 -265 -259 l-29 -6 3 -103
3 -104 360 0 c337 0 362 1 391 19 31 19 62 80 50 100 -3 5 -13 47 -22 92 -24
125 -40 149 -103 149 -38 0 -76 -40 -96 -101 l-17 -49 -155 0 -155 0 46 51
c309 344 390 827 207 1247 -20 48 -51 108 -67 135 -29 45 -30 50 -23 118 12
110 -16 158 -108 185 -43 12 -60 13 -89 4 -31 -11 -38 -9 -67 13 -30 23 -31
27 -32 94 0 57 -4 76 -24 105 -35 50 -84 80 -141 86 -52 5 -63 -1 -144 -71
-24 -21 -33 -23 -60 -16 -67 20 -215 39 -302 39 -88 0 -91 1 -111 29 -39 52
-128 81 -198 64z m112 -32 c58 -27 87 -84 79 -155 -9 -83 -10 -86 -18 -86 -4
0 -8 -14 -8 -31 0 -18 -5 -49 -12 -70 -10 -35 -14 -39 -45 -39 -19 0 -44 -5
-56 -11 -18 -10 -24 -8 -44 17 -13 16 -23 34 -23 41 0 23 -34 123 -42 123 -4
0 -8 29 -8 65 0 82 27 142 68 151 15 3 32 7 37 9 19 7 30 4 72 -14z m764 -52
c9 -5 31 -25 49 -45 32 -37 32 -39 27 -113 -7 -89 -8 -98 -27 -131 -8 -14 -19
-34 -25 -45 -6 -11 -20 -21 -31 -23 -11 -2 -60 -34 -108 -72 -48 -39 -94 -70
-102 -70 -7 0 -32 13 -56 29 -23 16 -48 27 -55 24 -28 -11 -11 39 41 116 51
75 54 83 44 112 -14 40 -3 104 23 132 81 88 116 110 169 100 19 -3 42 -9 51
-14z m-343 -173 c68 -17 72 -19 72 -45 0 -16 -19 -58 -45 -97 -24 -38 -47 -84
-51 -101 l-6 -33 -92 0 c-50 0 -122 -7 -161 -15 -38 -8 -71 -15 -72 -15 -17 0
22 288 43 321 10 16 222 6 312 -15z m-970 -36 c67 -66 102 -116 102 -144 0
-16 9 -43 19 -60 11 -17 24 -56 29 -86 6 -31 14 -68 17 -83 6 -24 4 -27 -18
-27 -18 0 -31 -10 -46 -34 -27 -43 -26 -52 7 -81 26 -24 26 -24 5 -25 -40 0
-101 65 -120 128 -9 32 -24 66 -33 77 -10 11 -34 47 -54 80 -21 33 -49 76 -63
95 -22 31 -24 41 -18 95 9 71 19 93 48 104 31 12 94 -8 125 -39z m391 -57 c6
-21 22 -55 36 -75 14 -20 25 -47 25 -60 0 -13 7 -45 15 -72 20 -67 20 -69 -21
-91 -20 -10 -67 -49 -105 -86 l-68 -67 -35 55 c-20 31 -41 81 -47 112 -15 73
-35 152 -44 173 -5 12 5 24 37 46 59 40 170 102 185 102 7 0 17 -17 22 -37z
m1231 -33 c37 -19 60 -45 60 -70 0 -6 -13 -2 -29 9 -35 25 -91 39 -91 22 0 -6
19 -20 43 -32 23 -12 45 -26 48 -32 4 -5 14 -7 22 -4 13 5 15 -1 10 -31 -8
-59 -52 -142 -85 -162 -17 -10 -35 -28 -42 -41 -6 -12 -45 -46 -86 -75 l-75
-52 -25 23 c-33 29 -55 36 -70 22 -10 -10 -11 -4 -6 26 11 60 60 158 105 209
39 44 52 66 31 53 -15 -9 -12 8 6 33 8 12 13 31 9 41 -7 23 29 61 56 61 10 0
21 5 24 10 10 16 53 12 95 -10z m-241 -69 c22 -17 23 -20 11 -57 -7 -21 -26
-55 -41 -74 -16 -19 -35 -52 -44 -74 l-16 -38 -22 20 c-12 11 -46 33 -75 50
l-54 30 96 73 c53 40 96 77 96 81 0 14 24 8 49 -11z m-799 -118 c0 -23 -4 -45
-10 -48 -5 -3 -10 -17 -10 -30 0 -29 -9 -55 -20 -55 -11 0 -40 88 -40 121 0
15 -5 40 -10 55 -15 38 -4 62 33 72 31 8 32 7 44 -32 7 -23 13 -60 13 -83z
m460 -39 c0 -28 -27 -51 -89 -74 -64 -23 -76 -9 -29 34 19 17 43 45 53 63 18
30 19 31 41 15 13 -9 24 -26 24 -38z m-122 30 c23 -7 23 -7 -9 -40 -33 -34
-57 -42 -75 -24 -18 18 -138 22 -170 5 -40 -21 -64 -19 -64 4 0 30 102 57 230
59 36 1 75 -1 88 -4z m247 -80 c78 -43 87 -54 40 -49 -23 2 -45 13 -60 29 -26
28 -61 36 -52 11 4 -8 -4 -22 -18 -34 -18 -14 -25 -29 -25 -54 0 -20 5 -39 10
-42 6 -3 10 -15 10 -26 0 -10 5 -19 10 -19 6 0 10 -6 10 -13 0 -21 44 -41 66
-29 11 5 24 7 31 5 6 -2 26 3 43 12 27 14 31 14 36 0 12 -29 -7 -67 -57 -117
-56 -56 -54 -72 6 -70 39 2 69 15 102 44 l21 20 -2 -40 c-1 -22 -8 -47 -15
-56 -12 -14 -11 -20 8 -39 13 -15 21 -36 21 -60 0 -26 4 -37 15 -37 9 0 12 -6
9 -15 -4 -8 -3 -23 1 -32 7 -18 13 -61 19 -145 3 -41 0 -48 -15 -48 -9 0 -25
-3 -34 -6 -18 -7 -55 -78 -55 -106 0 -10 -7 -21 -15 -24 -8 -4 -15 -14 -15
-24 0 -11 -4 -22 -10 -25 -5 -3 -10 -22 -10 -41 0 -19 -6 -36 -12 -38 -54 -14
-73 -23 -75 -36 -10 -79 -15 -90 -45 -106 -32 -17 -111 -12 -135 8 -7 5 -17 7
-23 3 -6 -4 -41 -1 -77 6 -64 13 -66 13 -84 -10 -11 -13 -19 -31 -19 -40 0
-16 -7 -17 -52 -10 -136 19 -251 80 -358 188 -84 85 -133 162 -166 266 l-22
70 40 18 c34 14 38 20 28 32 -7 8 -28 20 -47 27 l-36 13 7 90 c6 91 29 183 60
243 l17 33 29 -21 c16 -12 32 -24 34 -29 10 -15 39 -157 39 -189 0 -26 8 -39
39 -63 21 -17 38 -37 38 -44 0 -8 12 -31 26 -52 18 -27 24 -45 19 -63 -3 -14
-7 -35 -10 -48 -2 -13 -8 -28 -13 -35 -17 -22 -20 -56 -6 -68 8 -6 14 -27 14
-46 0 -35 13 -67 37 -91 7 -7 13 -29 13 -48 0 -25 4 -34 16 -34 17 0 89 -69
110 -106 10 -15 15 -17 30 -8 11 7 18 20 16 30 -9 55 -9 90 0 101 6 7 8 32 7
56 -3 31 0 43 7 40 18 -7 44 38 44 75 0 22 4 32 13 30 19 -7 20 -63 2 -82 -9
-9 -12 -16 -6 -16 14 0 31 34 31 61 0 29 -77 124 -113 140 -15 6 -25 14 -22
17 2 3 -13 26 -36 51 -56 64 -59 68 -59 86 0 19 6 19 55 -5 22 -11 46 -19 53
-20 6 0 12 -4 12 -9 0 -16 48 -60 67 -60 10 0 27 -1 37 -3 10 -2 21 4 23 12 4
13 3 13 -6 0 -7 -10 -11 -11 -11 -3 0 7 -7 10 -15 7 -19 -8 -19 5 0 30 10 13
12 32 8 62 -4 35 -2 45 11 50 9 3 16 17 16 29 0 16 11 30 33 43 33 21 33 22
28 109 -1 6 -13 25 -27 42 -23 28 -24 32 -11 51 8 12 13 29 10 39 -3 12 4 24
16 33 12 9 19 22 16 30 -3 8 6 25 20 38 14 13 25 32 25 42 0 26 18 43 63 57
21 7 58 30 83 52 25 21 47 39 49 39 2 0 34 -16 70 -36z m-1163 -135 c29 -39
86 -69 131 -69 19 0 45 -8 57 -18 22 -18 22 -20 7 -43 -39 -60 -77 -211 -78
-313 l-1 -55 -57 -7 c-50 -6 -194 -8 -278 -2 l-33 1 0 61 c0 174 65 391 161
541 l33 50 17 -57 c10 -32 28 -72 41 -89z m816 114 c8 -7 18 -11 23 -8 5 4 9
2 9 -4 0 -5 -4 -13 -10 -16 -18 -11 -11 -35 10 -35 27 0 26 -36 -1 -52 -24
-15 -59 -88 -59 -123 0 -15 -7 -26 -19 -30 -22 -7 -36 -38 -26 -55 4 -6 15 -8
26 -5 28 9 58 -31 59 -76 0 -30 -6 -41 -36 -64 -21 -16 -33 -33 -30 -41 3 -8
-4 -19 -17 -25 -33 -18 -46 -40 -47 -78 0 -32 0 -33 -17 -14 -10 11 -51 32
-92 48 -60 23 -75 25 -82 14 -14 -24 2 -62 52 -121 27 -31 49 -62 49 -68 0 -6
16 -18 35 -26 19 -8 35 -18 35 -22 0 -5 10 -18 21 -31 16 -17 18 -26 10 -34
-6 -6 -11 -24 -11 -39 0 -20 -5 -28 -18 -28 -30 0 -42 -20 -36 -64 4 -24 0
-58 -9 -83 -10 -31 -11 -45 -3 -53 8 -8 7 -10 -5 -5 -9 3 -21 17 -27 30 -6 13
-23 29 -39 37 -18 9 -29 24 -34 44 -3 18 -15 45 -26 60 -13 19 -18 36 -13 48
4 12 -1 35 -12 59 -13 25 -16 42 -10 50 6 7 13 28 16 48 3 20 8 43 12 53 7 17
-4 53 -39 125 -15 30 -32 48 -54 57 -21 9 -30 19 -27 28 5 13 -16 122 -36 188
-12 38 4 86 42 125 26 27 30 37 22 51 -6 9 -24 19 -40 22 l-29 5 63 53 c79 66
96 67 111 6 15 -58 40 -57 60 2 13 37 18 41 45 40 17 -1 45 6 63 15 37 19 119
15 141 -8z m335 -50 c30 -21 42 -24 55 -17 13 9 22 5 38 -15 22 -26 22 -27 2
-51 -11 -13 -31 -25 -46 -27 -15 -1 -39 -6 -54 -9 -23 -5 -28 -3 -28 13 0 11
-9 29 -20 41 -23 24 -25 44 -8 72 16 25 14 25 61 -7z m-958 1 c46 -30 114
-184 81 -184 -16 0 -27 10 -73 65 -23 28 -53 57 -67 65 -30 16 -32 27 -9 52
20 22 36 23 68 2z m182 -99 c2 -1 -13 -16 -32 -35 l-34 -33 -7 27 c-9 36 11
58 45 49 14 -3 27 -7 28 -8z m973 -20 c21 -26 3 -78 -43 -122 -63 -60 -81 -61
-41 -1 19 27 34 58 34 67 0 20 22 71 31 71 4 0 12 -7 19 -15z m51 -58 c-10 -9
-11 -8 -5 6 3 10 9 15 12 12 3 -3 0 -11 -7 -18z m48 -56 c11 -21 30 -76 42
-122 18 -71 21 -102 16 -199 -9 -205 -90 -364 -250 -496 -40 -33 -61 -44 -68
-37 -17 17 -6 46 18 48 42 3 69 30 68 68 -1 20 2 34 7 31 4 -3 8 6 8 19 0 14
7 30 15 37 8 7 15 21 15 31 0 22 21 71 35 81 5 4 22 8 36 8 15 0 32 6 38 13
10 13 7 81 -5 117 -3 8 -8 36 -10 61 -4 43 -2 47 20 53 33 8 45 45 20 63 -10
7 -28 13 -41 13 -16 0 -23 6 -23 18 0 10 -6 27 -14 37 -14 19 -11 79 4 100 4
6 10 23 14 40 7 27 23 55 32 55 2 0 13 -18 23 -39z m-14 -251 c3 -5 -3 -10
-14 -10 -11 0 -23 5 -26 10 -3 6 3 10 14 10 11 0 23 -4 26 -10z m-685 -82 c0
-48 -1 -50 -15 -32 -18 23 -19 56 -3 72 18 18 18 17 18 -40z m-883 -44 c35 -5
43 -11 48 -34 7 -34 42 -67 74 -72 l23 -3 -34 -50 c-57 -83 -126 -115 -177
-83 -16 10 -27 7 -65 -12 -41 -22 -48 -23 -81 -11 -20 7 -39 10 -42 7 -8 -8
37 -46 54 -46 12 0 38 -48 30 -56 -3 -4 -83 23 -108 36 -19 11 -49 90 -49 129
1 36 31 100 77 160 l38 50 85 -4 c47 -2 104 -7 127 -11z m236 6 c26 6 46 5 51
-1 14 -13 -1 -24 -57 -39 -26 -7 -50 -17 -53 -21 -8 -13 -68 -11 -82 3 -18 18
-15 27 19 47 24 15 38 17 56 10 15 -5 40 -5 66 1z m782 -556 c17 -4 42 -6 57
-5 41 4 42 -17 1 -23 -78 -12 -153 -10 -153 3 0 17 32 42 49 37 9 -2 30 -7 46
-12z"/>
<path d="M1194 2710 c-36 -8 -54 -18 -54 -29 0 -10 91 -2 103 9 15 13 -18 27
-49 20z"/>
<path d="M1187 2469 c-22 -11 -36 -23 -33 -26 10 -10 86 19 86 34 0 17 -7 16
-53 -8z"/>
<path d="M1180 2415 l-25 -15 35 2 c19 2 34 7 33 13 -3 15 -16 15 -43 0z"/>
<path d="M1930 2635 c0 -9 9 -15 21 -15 12 0 36 -16 54 -36 33 -36 56 -33 36
5 -26 48 -111 83 -111 46z"/>
<path d="M1830 2382 c0 -12 82 -72 91 -66 14 8 0 28 -34 52 -34 22 -57 28 -57
14z"/>
<path d="M1780 2360 c0 -9 103 -90 115 -90 3 0 5 7 5 15 0 8 -25 30 -55 50
-60 38 -65 40 -65 25z"/>
<path d="M571 2464 c-12 -15 -21 -31 -21 -35 0 -18 28 -8 44 16 31 48 12 63
-23 19z"/>
<path d="M718 2236 c-38 -45 -49 -71 -26 -64 21 7 70 75 66 93 -2 12 -13 4
-40 -29z"/>
<path d="M746 2184 c-20 -31 -36 -60 -36 -65 0 -20 21 -7 44 29 23 35 44 92
34 92 -3 0 -22 -25 -42 -56z"/>
<path d="M2140 2124 c0 -10 63 -84 72 -84 17 0 7 29 -21 59 -26 28 -51 40 -51
25z"/>
<path d="M2090 2093 c1 -18 87 -105 94 -95 4 7 -12 32 -35 57 -39 42 -60 55
-59 38z"/>
<path d="M888 1619 c-23 -39 -22 -52 0 -72 15 -14 21 -14 34 -4 24 19 29 57
11 83 -20 31 -24 30 -45 -7z m32 -28 c0 -6 -4 -13 -10 -16 -5 -3 -10 1 -10 9
0 9 5 16 10 16 6 0 10 -4 10 -9z"/>
<path d="M390 1378 c1 -40 41 -140 58 -146 17 -5 15 18 -7 64 -11 22 -22 56
-26 77 -9 46 -25 49 -25 5z"/>
<path d="M430 1362 c0 -19 19 -52 30 -52 15 0 12 12 -10 40 -11 14 -20 19 -20
12z"/>
<path d="M270 1281 c0 -31 43 -91 56 -79 4 5 0 23 -9 40 -9 18 -18 41 -21 51
-9 28 -26 20 -26 -12z"/>
</g>
</svg>
