<?xml version="1.0" standalone="no"?>
<!DOCTYPE svg PUBLIC "-//W3C//DTD SVG 20010904//EN"
 "http://www.w3.org/TR/2001/REC-SVG-20010904/DTD/svg10.dtd">
<svg version="1.0" xmlns="http://www.w3.org/2000/svg"
 width="300.000000pt" height="300.000000pt" viewBox="0 0 300.000000 300.000000"
 preserveAspectRatio="xMidYMid meet">

<g transform="translate(0.000000,300.000000) scale(0.100000,-0.100000)"
fill="#000000" stroke="none">
<path d="M1261 2644 c-237 -40 -454 -154 -627 -330 -430 -437 -443 -1131 -29
-1591 l47 -53 -91 0 -90 0 -37 76 c-30 62 -43 79 -70 90 -41 17 -75 10 -107
-22 -21 -21 -25 -36 -30 -131 -8 -129 2 -186 36 -221 33 -32 106 -41 161 -18
32 13 81 16 278 16 l241 0 -6 28 c-3 16 -9 63 -13 105 -6 71 -8 77 -29 77 -28
0 -100 56 -180 141 -289 305 -355 767 -165 1151 52 104 90 158 179 251 248
259 615 363 966 273 186 -48 339 -139 474 -282 187 -197 276 -423 276 -699 0
-217 -54 -396 -172 -573 -66 -98 -221 -250 -265 -259 l-29 -6 3 -103 3 -104
360 0 c337 0 362 1 391 19 31 19 62 80 50 100 -3 5 -13 47 -22 92 -24 125 -40
149 -103 149 -38 0 -76 -40 -96 -101 l-17 -49 -155 0 -155 0 46 51 c416 462
404 1155 -28 1593 -263 268 -634 390 -995 330z"/>
<path d="M1375 2206 c-142 -34 -254 -95 -355 -196 -159 -160 -233 -375 -204
-595 23 -172 85 -298 208 -420 158 -156 364 -229 580 -205 337 38 597 298 635
635 25 216 -48 423 -204 580 -88 89 -169 140 -286 181 -93 32 -279 42 -374 20z
m348 -56 c66 -20 191 -83 202 -100 13 -22 -68 0 -90 24 -26 28 -61 36 -52 11
4 -8 -4 -22 -18 -34 -18 -14 -25 -29 -25 -54 0 -20 5 -39 10 -42 6 -3 10 -15
10 -26 0 -10 5 -19 10 -19 6 0 10 -6 10 -13 0 -21 44 -41 66 -29 11 5 24 7 31
5 15 -5 70 22 101 50 25 23 28 46 10 67 -7 8 4 -1 24 -19 21 -19 50 -52 65
-73 l26 -39 -31 -32 c-30 -32 -58 -108 -46 -128 3 -6 -2 -19 -12 -30 -17 -18
-16 -20 4 -42 14 -15 22 -36 22 -60 0 -26 4 -37 15 -37 9 0 12 -6 9 -15 -4 -8
-3 -23 1 -32 7 -18 13 -61 19 -145 3 -41 0 -48 -15 -48 -9 0 -25 -3 -34 -6
-18 -7 -55 -78 -55 -106 0 -10 -7 -21 -15 -24 -8 -4 -15 -14 -15 -24 0 -11 -4
-22 -10 -25 -5 -3 -10 -22 -10 -41 0 -19 -6 -36 -12 -38 -54 -14 -73 -23 -75
-36 -10 -79 -15 -90 -45 -106 -32 -17 -111 -12 -135 8 -7 5 -17 7 -23 3 -6 -4
-41 -1 -77 6 -64 13 -66 13 -84 -10 -11 -13 -19 -31 -19 -40 0 -16 -7 -17 -52
-10 -136 19 -251 80 -358 188 -85 86 -137 171 -171 281 -19 61 -24 97 -23 195
0 138 14 198 76 316 48 95 73 119 111 112 l28 -6 -29 -31 c-38 -39 -55 -98
-42 -146 33 -130 40 -167 35 -182 -4 -10 7 -26 34 -48 23 -17 41 -38 41 -45 0
-8 12 -31 26 -52 18 -27 24 -45 19 -63 -3 -14 -7 -35 -10 -48 -2 -13 -8 -28
-13 -35 -17 -22 -20 -56 -6 -68 8 -6 14 -27 14 -46 0 -35 13 -67 37 -91 7 -7
13 -29 13 -48 0 -25 4 -34 16 -34 17 0 89 -69 110 -106 10 -15 15 -17 30 -8
11 7 18 20 16 30 -9 55 -9 90 0 101 6 7 8 32 7 56 -3 31 0 43 7 40 18 -7 44
38 44 75 0 22 4 32 13 30 19 -7 20 -63 2 -82 -9 -9 -12 -16 -6 -16 14 0 31 34
31 61 0 29 -77 124 -113 140 -15 6 -25 14 -22 17 2 3 -13 26 -36 51 -56 64
-59 68 -59 86 0 19 6 19 55 -5 22 -11 46 -19 53 -20 6 0 12 -4 12 -9 0 -16 48
-60 67 -60 10 0 27 -1 37 -3 10 -2 21 4 23 12 4 13 3 13 -6 0 -7 -10 -11 -11
-11 -3 0 7 -7 10 -15 7 -19 -8 -19 5 0 30 10 13 12 32 8 62 -4 35 -2 45 11 50
9 3 16 17 16 29 0 16 11 30 33 43 33 21 33 22 28 109 -1 6 -13 25 -27 42 -23
28 -24 32 -11 51 8 12 13 29 10 39 -3 12 4 24 16 33 12 9 19 22 16 30 -3 8 6
25 20 38 14 13 25 34 25 47 0 13 4 23 9 23 5 0 12 14 16 30 9 40 -8 60 -49 60
-18 0 -36 4 -42 10 -18 18 -138 22 -170 5 -36 -19 -55 -19 -79 -1 -18 13 -14
16 50 34 97 29 116 31 230 27 65 -3 124 -11 168 -25z m-216 -76 c7 -7 21 -10
30 -8 10 2 25 0 33 -6 12 -8 13 -13 3 -30 -7 -11 -13 -29 -13 -40 0 -11 -9
-25 -21 -32 -24 -15 -59 -88 -59 -123 0 -15 -7 -26 -19 -30 -22 -7 -36 -38
-26 -55 4 -6 15 -8 26 -5 28 9 58 -31 59 -76 0 -30 -6 -41 -36 -64 -21 -16
-33 -33 -30 -41 3 -8 -4 -19 -17 -25 -33 -18 -46 -40 -47 -78 0 -32 0 -33 -17
-14 -10 11 -51 32 -92 48 -60 23 -75 25 -82 14 -14 -24 2 -62 52 -121 27 -31
49 -62 49 -68 0 -6 16 -18 35 -26 19 -8 35 -18 35 -22 0 -5 10 -18 21 -31 16
-17 18 -26 10 -34 -6 -6 -11 -24 -11 -39 0 -20 -5 -28 -18 -28 -30 0 -42 -20
-36 -64 4 -24 0 -58 -9 -83 -10 -31 -11 -45 -3 -53 8 -8 7 -10 -5 -5 -9 3 -21
17 -27 30 -6 13 -23 29 -39 37 -18 9 -29 24 -34 44 -3 18 -15 45 -26 60 -13
19 -18 36 -13 48 4 12 -1 35 -12 59 -13 25 -16 42 -10 50 6 7 13 28 16 48 3
20 8 43 12 53 7 17 -4 53 -39 125 -15 30 -32 48 -54 57 -21 9 -30 19 -27 28 5
13 -16 122 -36 188 -12 38 4 86 42 125 26 27 30 37 22 51 -6 9 -24 19 -40 22
l-29 5 63 53 c37 31 73 52 87 52 13 0 35 4 50 10 19 7 32 6 48 -4 26 -16 49
-15 96 6 38 17 118 13 138 -8z m336 -51 c29 -20 43 -24 54 -17 12 7 22 3 42
-16 l26 -25 -25 -25 c-14 -13 -36 -25 -50 -27 -14 -1 -37 -6 -52 -9 -23 -5
-28 -3 -28 13 0 11 -9 29 -20 41 -23 24 -25 44 -8 72 16 25 14 25 61 -7z m122
-3 c3 -6 -1 -7 -9 -4 -18 7 -21 14 -7 14 6 0 13 -4 16 -10z m174 -229 c11 -21
30 -76 42 -122 18 -71 21 -102 16 -199 -9 -205 -90 -364 -250 -496 -40 -33
-61 -44 -68 -37 -17 17 -6 46 18 48 42 3 69 30 68 68 -1 20 2 34 7 31 4 -3 8
6 8 19 0 14 7 30 15 37 8 7 15 21 15 31 0 22 21 71 35 81 5 4 22 8 36 8 15 0
32 6 38 13 10 13 7 81 -5 117 -3 8 -8 36 -10 61 -4 43 -2 47 20 53 33 8 45 45
20 63 -10 7 -28 13 -41 13 -16 0 -23 6 -23 18 0 10 -6 27 -14 37 -14 19 -11
79 4 100 4 6 10 23 14 40 7 27 23 55 32 55 2 0 13 -18 23 -39z m-14 -251 c3
-5 -3 -10 -14 -10 -11 0 -23 5 -26 10 -3 6 3 10 14 10 11 0 23 -4 26 -10z
m-685 -82 c0 -48 -1 -50 -15 -32 -18 23 -19 56 -3 72 18 18 18 17 18 -40z
m135 -594 c17 -4 42 -6 57 -5 41 4 42 -17 1 -23 -78 -12 -153 -10 -153 3 0 17
32 42 49 37 9 -2 30 -7 46 -12z"/>
<path d="M888 1619 c-23 -39 -22 -52 0 -72 15 -14 21 -14 34 -4 24 19 29 57
11 83 -20 31 -24 30 -45 -7z m32 -28 c0 -6 -4 -13 -10 -16 -5 -3 -10 1 -10 9
0 9 5 16 10 16 6 0 10 -4 10 -9z"/>
</g>
</svg>
